<?xml version="1.0" encoding="UTF-8" standalone="no"?>
<svg
   xmlns:dc="http://purl.org/dc/elements/1.1/"
   xmlns:cc="http://creativecommons.org/ns#"
   xmlns:rdf="http://www.w3.org/1999/02/22-rdf-syntax-ns#"
   xmlns:svg="http://www.w3.org/2000/svg"
   xmlns="http://www.w3.org/2000/svg"
   xmlns:sodipodi="http://sodipodi.sourceforge.net/DTD/sodipodi-0.dtd"
   xmlns:inkscape="http://www.inkscape.org/namespaces/inkscape"
   inkscape:version="1.0beta1 (32d4812, 2019-09-19)"
   sodipodi:docname="pluginIcon_dark.svg"
   viewBox="0 0 40 40"
   height="40"
   width="40"
   id="svg226"
   version="1.1">
  <metadata
     id="metadata232">
    <rdf:RDF>
      <cc:Work
         rdf:about="">
        <dc:format>image/svg+xml</dc:format>
        <dc:type
           rdf:resource="http://purl.org/dc/dcmitype/StillImage" />
        <dc:title></dc:title>
      </cc:Work>
    </rdf:RDF>
  </metadata>
  <defs
     id="defs230" />
  <sodipodi:namedview
     inkscape:current-layer="g910"
     inkscape:window-maximized="0"
     inkscape:window-y="97"
     inkscape:window-x="452"
     inkscape:cy="20.000002"
     inkscape:cx="19.424738"
     inkscape:zoom="26.075"
     fit-margin-bottom="0"
     fit-margin-right="0"
     fit-margin-left="0"
     fit-margin-top="0"
     showgrid="false"
     id="namedview228"
     inkscape:window-height="1209"
     inkscape:window-width="1600"
     inkscape:pageshadow="2"
     inkscape:pageopacity="0"
     guidetolerance="10"
     gridtolerance="10"
     objecttolerance="10"
     borderopacity="1"
     inkscape:document-rotation="0"
     bordercolor="#666666"
     pagecolor="#ffffff" />
  <g
     transform="translate(-150.66667,-150.66667)"
     id="g234"
     inkscape:label="Image"
     inkscape:groupmode="layer">
    <g
       transform="matrix(0.1171875,0,0,0.1171875,150.66667,150.66668)"
       id="g910">
      <path
         inkscape:connector-curvature="0"
         id="path914"
         d="m 104.46764,217.42964 c -4.804589,-2.92967 -5.184778,-4.52108 -6.552949,-27.42963 l -0.87594,-14.66667 -5.243017,-4.84779 c -4.825264,-4.46152 -5.071532,-5.01926 -3.090803,-7 1.183717,-1.18372 2.693948,-2.15221 3.356068,-2.15221 2.727055,0 4.965755,-8.14323 5.83542,-21.22621 0.507926,-7.64109 1.759998,-15.89491 2.782381,-18.34182 2.0492,-4.90442 7.36395,-7.71164 12.26916,-6.48051 4.01644,1.00806 3.90165,4.45819 -0.20022,6.01772 -4.78952,1.82097 -5.65972,4.55451 -6.41915,20.16438 -0.68048,13.98711 -2.10932,19.06776 -6.21305,22.09232 -1.886795,1.39061 -1.765205,1.93212 1.12455,5.00816 3.70971,3.94885 5.18019,11.72385 5.32924,28.17779 0.102,11.25937 1.4469,14.68487 6.08203,15.491 3.1518,0.54817 4.36809,4.96453 1.81317,6.58365 -2.78314,1.76375 -5.42756,1.39602 -9.99689,-1.39018 z m 202.53237,1.71505 c -2.96515,-1.24579 -1.78956,-5.60705 2,-7.41977 3.56265,-1.70419 3.69388,-2.16123 4.6259,-16.11222 1.1325,-16.95187 2.71828,-23.63756 6.39604,-26.96589 l 2.69986,-2.44334 -3.59834,-3.75585 c -4.0093,-4.18481 -5.52997,-11.44856 -5.6928,-27.19277 -0.10226,-9.88562 -1.60281,-13.37865 -6.08202,-14.15768 -3.27796,-0.5701 -4.3088,-4.81241 -1.43715,-5.91437 3.7314,-1.43187 11.35883,0.81486 13.41381,3.95117 1.30836,1.9968 2.34911,8.99723 3.09319,20.80578 1.19005,18.88588 1.0284,18.465 9.09009,23.66831 2.34603,1.51421 2.24152,1.82545 -1.79082,5.33333 -5.69911,4.95787 -7.03994,9.1346 -7.10916,22.14542 -0.0735,13.79992 -1.61978,21.86323 -4.78915,24.97264 -2.69848,2.64744 -8.15684,4.20393 -10.81945,3.08524 z m -295.314154,-12.2254 -6.3141435,-3.58595 -0.01919,-8.90215 -0.01919,-8.90214 7.2602925,-4.15392 7.260293,-4.15392 8.132835,4.10544 8.132835,4.10545 -0.393127,8.86859 -0.393128,8.86857 -6,3.64391 c -7.508987,4.56033 -9.780439,4.57399 -17.647478,0.10613 z m 37.244305,-27.78288 c -5.632167,-2.86615 -6.930328,-3.06788 -10.781166,-1.6754 -2.915196,1.05414 -5.147577,1.15242 -6.681278,0.29412 -1.997923,-1.1181 -1.585011,-1.76432 3.114498,-4.87431 4.981459,-3.29657 5.417786,-4.06155 5.417786,-9.49855 0,-5.11908 0.581964,-6.34753 4.333333,-9.1471 9.010394,-6.72428 9.64634,-6.79335 18.373286,-1.9957 l 7.960048,4.37607 v 8.34217 c 0,8.19275 -0.08956,8.39842 -5,11.48207 -9.913871,6.22571 -9.828591,6.21197 -16.736507,2.69663 z m -36.263494,-30.8395 -6.6666669,-3.64078 v -9.16868 -9.16868 l 7.1973959,-4.06627 7.197395,-4.06626 7.042094,3.80935 c 7.21158,3.90104 8.512472,5.97713 8.544909,13.63684 0.01423,3.35876 0.841449,4.72482 3.781984,6.24542 2.070077,1.07048 4.501667,2.83542 5.403532,3.92212 2.600732,3.13368 -3.121137,4.30713 -7.383631,1.51424 -3.277101,-2.14724 -3.68331,-2.09646 -9.78182,1.22276 -3.499504,1.90468 -6.881537,3.44902 -7.515629,3.43189 -0.634094,-0.0171 -4.152896,-1.66951 -7.819563,-3.67195 z"
         style="fill:#3698b8;stroke-width:1.33333" />
      <path
         inkscape:connector-curvature="0"
         id="path912"
         d="m 136.8605,195.00001 c -1.03107,-2.01667 -4.1088,-10.86667 -6.83939,-19.66667 -2.7306,-8.8 -5.80241,-16.47981 -6.82625,-17.06625 -1.02384,-0.58644 -1.86152,-1.93644 -1.86152,-3 0,-1.50528 2.06804,-1.93375 9.33333,-1.93375 7.17539,0 9.33333,0.43792 9.33333,1.89405 0,1.04174 -1.8,2.28942 -4,2.77262 -2.2,0.4832 -4.00912,1.58088 -4.02028,2.43928 -0.0497,3.82477 7.49051,28.88313 8.68695,28.86932 0.73333,-0.008 3.01513,-5.44423 5.07068,-12.07948 4.85863,-15.6836 6.76368,-15.61463 12.24892,0.4435 2.19245,6.41843 4.54748,11.48279 5.2334,11.25415 1.00045,-0.33348 8.72401,-25.95984 8.76851,-29.09344 0.007,-0.45833 -1.78818,-1.19333 -3.98818,-1.63333 -2.34608,-0.46922 -4,-1.64075 -4,-2.83334 0,-1.61368 1.78871,-2.03333 8.66667,-2.03333 6.68284,0 8.66667,0.44264 8.66667,1.93375 0,1.06356 -0.77239,2.41356 -1.71643,3 -0.94403,0.58644 -4.42161,9.76625 -7.72797,20.39958 -5.12987,16.49775 -6.43288,19.39456 -8.88415,19.75074 -2.54372,0.36962 -3.30579,-0.97611 -6.65637,-11.75443 -2.08108,-6.69451 -4.30903,-12.28233 -4.951,-12.4174 -0.64198,-0.13507 -2.6525,5.30443 -4.46784,12.08776 -2.64304,9.8762 -3.78811,12.33333 -5.74752,12.33333 -1.3458,0 -3.29051,-1.65 -4.32156,-3.66666 z m 62.47284,1.26442 c -7.89704,-5.03294 -9.28884,-7.71996 -9.79722,-18.91452 -0.46953,-10.33957 -0.45304,-10.39856 4.41759,-15.78974 2.68888,-2.97628 7.02044,-6.1149 9.62569,-6.97471 6.34011,-2.09241 15.81158,-0.87055 20.58004,2.65493 4.83896,3.5776 5.46382,2.38359 4.90919,-9.38082 l -0.40196,-8.52623 -4.33333,-0.41781 c -4.55614,-0.4393 -5.91558,-3.35639 -2.22428,-4.77287 1.15997,-0.44513 4.45997,-0.80932 7.33333,-0.80932 h 5.22428 v 29.36633 29.36634 L 238,193.33334 c 4.41312,1.67787 4.22148,3.48904 -0.46841,4.42701 C 232.08351,198.84997 228,197.45797 228,194.51117 c 0,-3.19623 -0.57277,-3.15331 -5.38358,0.40349 -5.56912,4.11743 -17.82558,4.82796 -23.28308,1.34977 z m 17.57986,-4.35324 c 5.64312,-2.13812 9.62502,-6.48254 11.15734,-12.17313 2.86145,-10.62661 -5.58934,-21.08177 -17.02771,-21.0664 -16.82267,0.0227 -22.06855,25.99155 -6.60885,32.71617 5.18725,2.25634 7.6345,2.35898 12.47922,0.52336 z M 256,195.39697 c 0,-1.44407 2.11874,-2.03731 8.33334,-2.33334 l 8.33333,-0.39696 0.36095,-27 0.36093,-27 h -6.53101 c -7.38944,0 -11.86319,-3.06266 -6.55231,-4.4856 1.66547,-0.44622 6.76663,-0.81952 11.33594,-0.82953 l 8.30782,-0.0181 0.35884,29.66666 0.35884,29.66667 9,0.39425 c 6.80472,0.29808 9,0.86724 9,2.33334 0,1.61576 -3.55713,1.93908 -21.33333,1.93908 C 259.57079,197.33341 256,197.0093 256,195.39703 Z"
         style="fill:#ffffff;stroke-width:1.33333" />
    </g>
  </g>
</svg>
